<svg width="40" height="39" viewBox="0 0 40 39" fill="none" xmlns="http://www.w3.org/2000/svg">
<g clip-path="url(#clip0_118_2259)">
<path fill-rule="evenodd" clip-rule="evenodd" d="M0 19.5C0 8.73048 8.95433 0 20 0C31.0457 0 40 8.73048 40 19.5C40 30.2695 31.0457 39 20 39C8.95433 39 0 30.2695 0 19.5ZM20.001 9.1C17.1041 9.1 16.7405 9.11235 15.6028 9.16281C14.4672 9.21351 13.6921 9.38884 13.0138 9.646C12.3123 9.91161 11.7172 10.267 11.1242 10.8452C10.5309 11.4233 10.1664 12.0035 9.89308 12.6874C9.62867 13.3489 9.44867 14.1048 9.39758 15.2115C9.34667 16.3209 9.33333 16.6756 9.33333 19.5001C9.33333 22.3246 9.34625 22.678 9.39775 23.7873C9.45 24.8945 9.62975 25.6502 9.89333 26.3115C10.166 26.9956 10.5304 27.5758 11.1236 28.1539C11.7162 28.7324 12.3113 29.0886 13.0125 29.3542C13.6912 29.6114 14.4665 29.7867 15.6018 29.8374C16.7397 29.8879 17.103 29.9002 19.9997 29.9002C22.8968 29.9002 23.2593 29.8879 24.3971 29.8374C25.5326 29.7867 26.3086 29.6114 26.9873 29.3542C27.6887 29.0886 28.2828 28.7324 28.8755 28.1539C29.4688 27.5758 29.8333 26.9956 30.1067 26.3118C30.3689 25.6502 30.5489 24.8943 30.6022 23.7876C30.6533 22.6782 30.6667 22.3246 30.6667 19.5001C30.6667 16.6756 30.6533 16.3212 30.6022 15.2118C30.5489 14.1046 30.3689 13.3489 30.1067 12.6876C29.8333 12.0036 29.4688 11.4233 28.8755 10.8452C28.2822 10.2667 27.6888 9.91144 26.9867 9.646C26.3066 9.38884 25.5311 9.21351 24.3955 9.16281C23.2577 9.11235 22.8955 9.1 19.9977 9.1H20.001Z" fill="#DDD7E3"/>
<path fill-rule="evenodd" clip-rule="evenodd" d="M19.0441 10.9743C19.3281 10.9739 19.645 10.9743 20.001 10.9743C22.849 10.9743 23.1866 10.9843 24.3112 11.0341C25.3512 11.0805 25.9158 11.2499 26.2918 11.3922C26.7895 11.5807 27.1444 11.806 27.5175 12.17C27.8908 12.534 28.122 12.8807 28.3158 13.3661C28.4618 13.7322 28.6357 14.2826 28.6831 15.2966C28.7342 16.3929 28.7453 16.7223 28.7453 19.4978C28.7453 22.2733 28.7342 22.6027 28.6831 23.699C28.6355 24.713 28.4618 25.2634 28.3158 25.6295C28.1224 26.1149 27.8908 26.4604 27.5175 26.8243C27.1442 27.1883 26.7898 27.4136 26.2918 27.6021C25.9162 27.7451 25.3512 27.9141 24.3112 27.9605C23.1868 28.0103 22.849 28.0211 20.001 28.0211C17.1527 28.0211 16.8152 28.0103 15.6907 27.9605C14.6507 27.9137 14.0863 27.7442 13.7101 27.6018C13.2123 27.4133 12.8567 27.188 12.4833 26.824C12.11 26.46 11.8789 26.1142 11.6852 25.6287C11.5392 25.2625 11.3652 24.7122 11.3178 23.6982C11.2667 22.6018 11.2565 22.2725 11.2565 19.4952C11.2565 16.7179 11.2667 16.3903 11.3178 15.294C11.3653 14.28 11.5392 13.7296 11.6852 13.363C11.8785 12.8777 12.11 12.531 12.4833 12.167C12.8567 11.803 13.2123 11.5777 13.7101 11.3887C14.0861 11.2457 14.6507 11.0767 15.6907 11.0302C16.6747 10.9869 17.0561 10.9739 19.0441 10.9717V10.9743ZM25.6948 12.7011C24.9882 12.7011 24.4148 13.2595 24.4148 13.9487C24.4148 14.6377 24.9882 15.1967 25.6948 15.1967C26.4015 15.1967 26.9748 14.6377 26.9748 13.9487C26.9748 13.2597 26.4015 12.7011 25.6948 12.7011ZM20.001 14.1593C16.9758 14.1593 14.5232 16.5507 14.5232 19.5002C14.5232 22.4497 16.9758 24.84 20.001 24.84C23.0262 24.84 25.4779 22.4497 25.4779 19.5002C25.4779 16.5507 23.0262 14.1593 20.001 14.1593Z" fill="#DDD7E3"/>
<path fill-rule="evenodd" clip-rule="evenodd" d="M20.001 16.0332C21.9646 16.0332 23.5566 17.5852 23.5566 19.4999C23.5566 21.4144 21.9646 22.9666 20.001 22.9666C18.0372 22.9666 16.4454 21.4144 16.4454 19.4999C16.4454 17.5852 18.0372 16.0332 20.001 16.0332Z" fill="#DDD7E3"/>
</g>
<defs>
<clipPath id="clip0_118_2259">
<rect width="40" height="39" fill="white"/>
</clipPath>
</defs>
</svg>
