<svg width="40" height="39" viewBox="0 0 40 39" fill="none" xmlns="http://www.w3.org/2000/svg">
<path fill-rule="evenodd" clip-rule="evenodd" d="M0 19.5C0 8.73048 8.95433 0 20 0C31.0457 0 40 8.73048 40 19.5C40 30.2695 31.0457 39 20 39C8.95433 39 0 30.2695 0 19.5ZM14.1337 16.1507H9.60133V29.4284H14.1337V16.1507ZM14.4323 12.0434C14.4029 10.7416 13.4481 9.75 11.8975 9.75C10.347 9.75 9.33333 10.7416 9.33333 12.0434C9.33333 13.3183 10.3171 14.3384 11.8387 14.3384H11.8677C13.4481 14.3384 14.4323 13.3183 14.4323 12.0434ZM30.4795 21.8154C30.4795 17.7371 28.2435 15.839 25.2609 15.839C22.8545 15.839 21.7772 17.1277 21.1756 18.0317V16.1511H16.6426C16.7023 17.397 16.6426 29.4288 16.6426 29.4288H21.1756V22.0134C21.1756 21.6166 21.205 21.2207 21.3248 20.9366C21.6524 20.1438 22.3983 19.323 23.6504 19.323C25.2912 19.323 25.9471 20.5406 25.9471 22.3248V29.4284H30.4793L30.4795 21.8154Z" fill="#DDD7E3"/>
</svg>
