<svg width="24" height="24" viewBox="0 0 24 24" fill="none" xmlns="http://www.w3.org/2000/svg">
<path d="M23.2743 10.793L1.80207 0.127944C1.58588 0.019982 1.34506 -0.0209037 1.10769 0.010052C0.870328 0.0410078 0.646184 0.14253 0.461388 0.302786C0.276592 0.463043 0.138755 0.675433 0.0639407 0.915203C-0.0108737 1.15497 -0.0195838 1.41225 0.038826 1.65704L2.48792 11.9995L0.038826 22.3419C-0.0201303 22.5868 -0.0118012 22.8443 0.0628391 23.0844C0.137479 23.3244 0.275345 23.5371 0.460308 23.6975C0.645271 23.8579 0.869685 23.9594 1.1073 23.9901C1.34491 24.0208 1.5859 23.9795 1.80207 23.871L23.2743 13.2059C23.4912 13.0983 23.6747 12.9277 23.8032 12.714C23.9318 12.5004 24 12.2525 24 11.9995C24 11.7464 23.9318 11.4985 23.8032 11.2849C23.6747 11.0713 23.4912 10.9006 23.2743 10.793ZM3.13461 20.2609L4.19432 15.7855L11.3686 11.9995L4.19432 8.21337L3.13461 3.73806L19.7692 11.9995L3.13461 20.2609Z" fill="#56405E"/>
</svg>
