<svg width="40" height="40" viewBox="0 0 40 40" fill="none" xmlns="http://www.w3.org/2000/svg">
<path d="M20.0017 3.3335C29.2063 3.3335 36.6683 10.7954 36.6683 20.0002C36.6683 29.2048 29.2063 36.6668 20.0017 36.6668C16.9452 36.6668 14.0809 35.8442 11.6181 34.408L3.34193 36.6668L5.5952 28.386C4.15823 25.9228 3.33497 23.0577 3.33497 20.0002C3.33497 10.7954 10.7969 3.3335 20.0017 3.3335ZM13.9872 12.1807C13.7716 12.1959 13.5601 12.2485 13.3676 12.347C13.2232 12.4209 13.0891 12.5277 12.8785 12.7266C12.6796 12.9144 12.5643 13.0784 12.4428 13.2366C11.8267 14.0388 11.4955 15.0236 11.5016 16.0351C11.505 16.8528 11.7174 17.6475 12.0528 18.3895C12.733 19.8942 13.8548 21.4848 15.3366 22.96C15.6925 23.3143 16.0412 23.6725 16.4172 24.0035C18.2563 25.6228 20.448 26.7905 22.8178 27.4138C22.8178 27.4138 23.7512 27.5572 23.7648 27.558C24.074 27.5747 24.3827 27.5523 24.6922 27.5365C25.1777 27.5115 25.6517 27.3802 26.0807 27.1517C26.3565 27.0048 26.487 26.9318 26.7185 26.7858C26.7185 26.7858 26.7895 26.7378 26.9265 26.6358C27.1515 26.4682 27.2905 26.3502 27.4777 26.1558C27.6157 26.0125 27.7343 25.8432 27.826 25.6523C27.9563 25.3803 28.0875 24.8612 28.1397 24.43C28.1795 24.1007 28.1675 23.9207 28.1632 23.8092C28.156 23.6298 28.0078 23.4453 27.8455 23.367L26.8763 22.9313C26.8763 22.9313 25.4272 22.3007 24.5408 21.8963C24.4485 21.8542 24.3475 21.8347 24.246 21.8285C24.0237 21.8148 23.7745 21.8728 23.616 22.0398C23.6077 22.0365 23.4973 22.1318 22.2915 23.5927C22.225 23.6722 22.0692 23.845 21.7997 23.8288C21.759 23.826 21.7185 23.8202 21.679 23.8098C21.5698 23.781 21.4635 23.743 21.3595 23.699C21.1533 23.6115 21.081 23.5783 20.9402 23.5177C19.978 23.0973 19.095 22.535 18.3145 21.8468C18.1052 21.6625 17.9105 21.464 17.7098 21.2695C17.0095 20.5907 16.4362 19.8687 16.0096 19.1565C15.9863 19.1177 15.9505 19.0615 15.9118 18.9987C15.842 18.8852 15.7651 18.7502 15.7409 18.6575C15.679 18.4123 15.8433 18.2153 15.8433 18.2153C15.8433 18.2153 16.249 17.7718 16.4375 17.5307C16.6188 17.2985 16.7753 17.0715 16.875 16.9097C17.0713 16.594 17.1335 16.2679 17.0303 16.0162C16.5627 14.8762 16.0803 13.7424 15.5831 12.6151C15.485 12.3926 15.1931 12.2309 14.9277 12.2003C14.8378 12.1899 14.7479 12.1795 14.6577 12.1735C14.4342 12.1626 14.2103 12.165 13.9872 12.1807Z" fill="#DDD7E3"/>
</svg>
