<svg width="24" height="24" viewBox="0 0 24 24" fill="none" xmlns="http://www.w3.org/2000/svg">
<path d="M5.28355 6.57492C6.54472 6.57492 7.5671 5.55079 7.5671 4.28746C7.5671 3.02413 6.54472 2 5.28355 2C4.02238 2 3 3.02413 3 4.28746C3 5.55079 4.02238 6.57492 5.28355 6.57492Z" fill="#6B6B6B"/>
<path d="M9.72333 8.30802V20.9988H13.6569V14.723C13.6569 13.0669 13.9679 11.4632 16.0177 11.4632C18.0393 11.4632 18.0643 13.3565 18.0643 14.8275V20.9999H22V14.0403C22 10.6216 21.2653 7.99438 17.2764 7.99438C15.3612 7.99438 14.0775 9.04716 13.5526 10.0435H13.4993V8.30802H9.72333ZM3.31311 8.30802H7.25296V20.9988H3.31311V8.30802Z" fill="#6B6B6B"/>
</svg>
