<svg width="24" height="25" viewBox="0 0 24 25" fill="none" xmlns="http://www.w3.org/2000/svg">
<path d="M12 0C18.6277 0 24 5.5696 24 12.4406C24 19.3116 18.6277 24.8812 12 24.8812C5.37235 24.8812 0 19.3116 0 12.4406C0 5.5696 5.37235 0 12 0ZM16.1395 17.5115C16.3602 16.8094 17.3943 9.81239 17.5221 8.43365C17.5607 8.01608 17.4334 7.7386 17.184 7.61473C16.8824 7.46436 16.4358 7.53955 15.9177 7.73319C15.2071 7.99877 6.12261 11.9976 5.59774 12.2291C5.1 12.4482 4.62939 12.6873 4.62939 13.0334C4.62939 13.2768 4.7687 13.4137 5.1527 13.5559C5.55235 13.7036 6.55878 14.02 7.15304 14.1899C7.72539 14.3538 8.37704 14.2115 8.74226 13.9762C9.12939 13.7269 13.597 10.6275 13.9179 10.356C14.2383 10.0845 14.4939 10.4323 14.232 10.7043C13.9701 10.9759 10.9033 14.0617 10.499 14.489C10.008 15.0077 10.3565 15.5453 10.6857 15.7606C11.0619 16.0062 13.7671 17.8874 14.1746 18.1892C14.5821 18.4911 14.9953 18.6279 15.3736 18.6279C15.7518 18.6279 15.9511 18.1114 16.1395 17.5115Z" fill="#048CC7"/>
</svg>
