<svg width="24" height="27" viewBox="0 0 24 27" fill="none" xmlns="http://www.w3.org/2000/svg">
<path d="M23.3045 5.9885C22.8581 4.35422 21.9742 3.06328 20.6795 2.15001C19.0456 0.994108 17.1662 0.586683 15.5434 0.337192C13.2979 -0.00614421 11.2644 -0.0542111 9.32471 0.188413C7.50776 0.417304 6.13946 0.78124 4.8917 1.36949C2.44529 2.5231 0.976554 4.38856 0.527897 6.91322C0.309149 8.14007 0.161829 9.2479 0.0770081 10.3054C-0.119419 12.7499 0.0591511 14.9129 0.621647 16.918C1.17075 18.8728 2.12833 20.269 3.5502 21.1868C3.9118 21.4203 4.37608 21.5897 4.82474 21.7522C5.0792 21.8438 5.32697 21.933 5.53009 22.0314C5.71759 22.1207 5.71759 22.1367 5.71536 22.297C5.69973 23.6863 5.71536 26.4101 5.71536 26.4101L5.71982 26.9915H6.73767L6.90285 26.8267C7.01222 26.7214 9.53452 24.2219 10.4341 23.2148L10.5568 23.0752C10.7109 22.8921 10.7109 22.8921 10.8693 22.8898C12.0836 22.8646 13.3247 22.8165 14.5568 22.7479C16.0501 22.6655 17.78 22.5167 19.4094 21.8209C20.9005 21.1823 21.9898 20.1683 22.6438 18.8087C23.3268 17.3895 23.7308 15.8537 23.8826 14.1118C24.1505 11.0493 23.9608 8.39185 23.3045 5.9885ZM17.934 17.8977C17.559 18.5226 17.001 18.9574 16.3425 19.239C15.8604 19.445 15.3693 19.4015 14.8939 19.1955C10.914 17.4674 7.79123 14.7459 5.72875 10.8318C5.30241 10.0261 5.00777 9.14719 4.66849 8.29572C4.59929 8.12176 4.60376 7.91576 4.57251 7.72349C4.60153 6.34786 5.63054 5.57192 6.67071 5.33845C7.06803 5.2469 7.4207 5.3911 7.71534 5.68179C8.5323 6.47833 9.17739 7.40533 9.66399 8.4445C9.87604 8.89999 9.78006 9.30284 9.41845 9.6416C9.34256 9.71255 9.26444 9.77664 9.18185 9.84073C8.35596 10.477 8.23543 10.96 8.67516 11.9191C9.42515 13.551 10.6707 14.6474 12.28 15.3272C12.7041 15.5058 13.1037 15.4165 13.4274 15.064C13.472 15.0182 13.5211 14.9725 13.5524 14.9175C14.1863 13.8326 15.1081 13.9402 15.9586 14.5582C16.5166 14.9656 17.059 15.3959 17.6104 15.8102C18.4519 16.4442 18.4452 17.0393 17.934 17.8977ZM12.655 7.06887C12.4675 7.06887 12.28 7.08489 12.0948 7.11693C11.7823 7.16958 11.4899 6.95442 11.4363 6.63397C11.385 6.31582 11.5948 6.01368 11.9073 5.96103C12.1528 5.91755 12.405 5.89695 12.655 5.89695C15.1305 5.89695 17.1438 7.96154 17.1438 10.4999C17.1438 10.7586 17.1238 11.0172 17.0813 11.2667C17.0345 11.5528 16.7934 11.7565 16.5188 11.7565C16.4876 11.7565 16.4563 11.7543 16.4229 11.7474C16.1126 11.6947 15.9028 11.3926 15.9541 11.0745C15.9854 10.8868 16.001 10.6945 16.001 10.4999C16.001 8.6093 14.4988 7.06887 12.655 7.06887ZM15.4296 10.5846C15.4296 10.9074 15.1729 11.1706 14.8581 11.1706C14.5434 11.1706 14.2867 10.9074 14.2867 10.5846C14.2867 9.61642 13.5166 8.82675 12.5724 8.82675C12.2577 8.82675 12.001 8.56352 12.001 8.24079C12.001 7.91805 12.2577 7.65483 12.5724 7.65483C14.1483 7.65483 15.4296 8.96866 15.4296 10.5846ZM18.6929 11.887C18.6327 12.1594 18.3961 12.3425 18.1349 12.3425C18.0925 12.3425 18.0501 12.3379 18.0077 12.3288C17.6996 12.2555 17.5077 11.9419 17.5769 11.6261C17.6595 11.253 17.7019 10.8662 17.7019 10.477C17.7019 7.62965 15.4407 5.31099 12.664 5.31099C12.2845 5.31099 11.9073 5.35448 11.5434 5.43916C11.2354 5.51241 10.9296 5.31327 10.8604 4.99741C10.789 4.68154 10.9832 4.36796 11.2912 4.297C11.7376 4.19171 12.1997 4.13907 12.664 4.13907C16.0724 4.13907 18.8447 6.98189 18.8447 10.477C18.8447 10.9531 18.7934 11.4269 18.6929 11.887Z" fill="#6631AA"/>
</svg>
