<svg width="24" height="25" viewBox="0 0 24 25" fill="none" xmlns="http://www.w3.org/2000/svg">
<path d="M12 0C18.6275 0 24 5.56976 24 12.4406C24 19.3114 18.6275 24.8812 12 24.8812C9.876 24.8812 7.8825 24.3069 6.1515 23.3033L0.117 24.7029L1.6525 18.7392C0.604 16.8912 0 14.7395 0 12.4406C0 5.56976 5.3725 0 12 0ZM16.9595 16.2018C17.17 15.5959 17.17 15.077 17.1045 14.9671C17.0405 14.8619 16.8745 14.7971 16.6205 14.667C16.3665 14.5368 15.1225 13.9081 14.889 13.8225C14.659 13.737 14.4885 13.6924 14.3225 13.9527C14.152 14.2129 13.669 14.7976 13.5185 14.9676C13.3725 15.1423 13.226 15.1625 12.972 15.0324C12.718 14.9023 11.902 14.6301 10.9355 13.7453C10.1835 13.0595 9.6765 12.211 9.53 11.9513C9.3835 11.6916 9.514 11.5495 9.6405 11.4194C9.7555 11.3059 9.8945 11.1193 10.021 10.969C10.1435 10.8145 10.187 10.7088 10.2705 10.5341C10.358 10.3641 10.314 10.2096 10.251 10.0795C10.188 9.94937 9.6965 8.66695 9.4705 8.15533C9.281 7.7251 9.082 7.71266 8.9 7.70851C8.7525 7.70073 8.582 7.70073 8.416 7.70073C8.2455 7.70073 7.972 7.76501 7.739 8.02523C7.51 8.28544 6.856 8.9111 6.856 10.1899C6.856 11.464 7.7595 12.6987 7.8865 12.8688C8.0135 13.0435 9.637 15.7467 12.212 16.786C14.347 17.647 14.783 17.4765 15.2505 17.4319C15.7155 17.3909 16.749 16.8062 16.9595 16.2018Z" fill="#359E52"/>
</svg>
