<svg width="137" height="224" viewBox="0 0 137 224" fill="none" xmlns="http://www.w3.org/2000/svg">
<path d="M0 14.6087V209.391C0 217.446 6.58578 224 14.6786 224H122.321C130.414 224 137 217.446 137 209.391V14.6087C137 6.55443 130.414 0 122.321 0H14.6786C6.58578 0 0 6.55443 0 14.6087ZM127.214 14.6087V209.391C127.214 212.079 125.022 214.261 122.321 214.261H14.6786C11.9777 214.261 9.78572 212.079 9.78572 209.391V14.6087C9.78572 11.9207 11.9777 9.73913 14.6786 9.73913H122.321C125.022 9.73913 127.214 11.9207 127.214 14.6087Z" fill="#DDD7E3"/>
</svg>
