<svg width="991" height="630" viewBox="0 0 991 630" fill="none" xmlns="http://www.w3.org/2000/svg">
<path d="M0 35V525C0.0109315 534.28 4.3648 543.177 12.1061 549.738C19.8474 556.3 30.3438 559.991 41.2917 560H412.917V595H330.333V630H660.667V595H578.083V560H949.708C960.656 559.991 971.152 556.3 978.894 549.738C986.635 543.177 990.989 534.28 991 525V35C990.989 25.7203 986.635 16.8233 978.894 10.2615C971.152 3.69973 960.656 0.00926584 949.708 0H41.2917C30.3438 0.00926584 19.8474 3.69973 12.1061 10.2615C4.3648 16.8233 0.0109315 25.7203 0 35ZM536.792 595H454.208V560H536.792V595ZM949.708 525H41.2917V35H949.708V525Z" fill="#DDD7E3"/>
</svg>
