<svg width="235" height="310" viewBox="0 0 235 310" fill="none" xmlns="http://www.w3.org/2000/svg">
<path d="M14.6875 310H151.771C154.473 310 156.667 307.83 156.667 305.156C156.667 302.483 154.473 300.312 151.771 300.312H14.6875C11.985 300.312 9.79167 298.142 9.79167 295.469V14.5312C9.79167 11.8575 11.985 9.6875 14.6875 9.6875H220.313C223.015 9.6875 225.208 11.8575 225.208 14.5312V62.9688C225.208 65.6425 227.402 67.8125 230.104 67.8125C232.807 67.8125 235 65.6425 235 62.9688V14.5312C235 6.51969 228.41 0 220.313 0H14.6875C6.58979 0 0 6.51969 0 14.5312V295.469C0 303.48 6.58979 310 14.6875 310Z" fill="#DDD7E3"/>
</svg>
