<svg width="24" height="24" viewBox="0 0 24 24" fill="none" xmlns="http://www.w3.org/2000/svg">
<g clip-path="url(#clip0_107_2239)">
<path d="M6.995 12C6.995 14.761 9.241 17.007 12.002 17.007C14.763 17.007 17.009 14.761 17.009 12C17.009 9.239 14.763 6.993 12.002 6.993C9.241 6.993 6.995 9.239 6.995 12ZM11 19H13V22H11V19ZM11 2H13V5H11V2ZM2 11H5V13H2V11ZM19 11H22V13H19V11ZM5.637 19.778L4.223 18.364L6.344 16.243L7.758 17.657L5.637 19.778ZM16.242 6.344L18.364 4.222L19.778 5.636L17.656 7.758L16.242 6.344ZM6.344 7.759L4.223 5.637L5.638 4.223L7.758 6.345L6.344 7.759ZM19.778 18.364L18.364 19.778L16.242 17.656L17.656 16.242L19.778 18.364Z" fill="#FFAE00"/>
<path d="M12.1168 11.8836C10.5922 10.3583 9.55388 8.41539 9.13311 6.30023C8.71233 4.18507 8.92796 1.99265 9.75274 0C7.40113 0.462949 5.24106 1.61685 3.54879 3.31413C-1.18293 8.046 -1.18293 15.7188 3.54879 20.4506C8.28172 25.1837 15.953 25.1825 20.686 20.4506C22.3828 18.7585 23.5366 16.5989 24 14.2477C22.0074 15.0724 19.8151 15.2879 17.7 14.8671C15.585 14.4463 13.6421 13.4081 12.1168 11.8836Z" fill="#DDD7E3"/>
</g>
<defs>
<clipPath id="clip0_107_2239">
<rect width="24" height="24" fill="white"/>
</clipPath>
</defs>
</svg>
